<?xml version="1.0" encoding="UTF-8" standalone="no"?>
<svg
   xmlns:dc="http://purl.org/dc/elements/1.1/"
   xmlns:cc="http://creativecommons.org/ns#"
   xmlns:rdf="http://www.w3.org/1999/02/22-rdf-syntax-ns#"
   xmlns:svg="http://www.w3.org/2000/svg"
   xmlns="http://www.w3.org/2000/svg"
   xmlns:sodipodi="http://sodipodi.sourceforge.net/DTD/sodipodi-0.dtd"
   xmlns:inkscape="http://www.inkscape.org/namespaces/inkscape"
   sodipodi:docname="logo.svg"
   inkscape:version="1.0 (4035a4f, 2020-05-01)"
   id="svg8"
   version="1.1"
   viewBox="0 0 210 297"
   height="297mm"
   width="210mm">
  <defs
     id="defs2" />
  <sodipodi:namedview
     inkscape:window-maximized="1"
     inkscape:window-y="23"
     inkscape:window-x="1680"
     inkscape:window-height="1035"
     inkscape:window-width="1870"
     showgrid="false"
     inkscape:document-rotation="0"
     inkscape:current-layer="layer1"
     inkscape:document-units="mm"
     inkscape:cy="104.0285"
     inkscape:cx="385.80992"
     inkscape:zoom="1.0464113"
     inkscape:pageshadow="2"
     inkscape:pageopacity="0.0"
     borderopacity="1.0"
     bordercolor="#666666"
     pagecolor="#ffffff"
     id="base" />
  <metadata
     id="metadata5">
    <rdf:RDF>
      <cc:Work
         rdf:about="">
        <dc:format>image/svg+xml</dc:format>
        <dc:type
           rdf:resource="http://purl.org/dc/dcmitype/StillImage" />
        <dc:title></dc:title>
      </cc:Work>
    </rdf:RDF>
  </metadata>
  <g
     id="layer1"
     inkscape:groupmode="layer"
     inkscape:label="Layer 1">
    <text
       inkscape:export-ydpi="96"
       inkscape:export-xdpi="96"
       id="text835"
       y="55.671265"
       x="14.825773"
       style="font-size:40.56119999999999948px;line-height:1.25;font-family:'Batman Beat the hell Outta Me';-inkscape-font-specification:'Batman Beat the hell Outta Me';stroke-width:1.01403;fill:#fff100;fill-opacity:1;stroke:#cb005d;stroke-opacity:1;"
       xml:space="preserve"><tspan
         style="stroke-width:1.01403;fill:#fff100;fill-opacity:1;stroke:#cb005d;stroke-opacity:1;"
         y="55.671265"
         x="14.825773"
         id="tspan833"
         sodipodi:role="line">(ChutI)</tspan></text>
    <g
       style="font-size:40.5612px;line-height:1.25;font-family:'Batman Beat the hell Outta Me';-inkscape-font-specification:'Batman Beat the hell Outta Me';stroke-width:1.01403"
       id="text835-0"
       aria-label="(ChutI)">
      <path
         id="path855"
         style="stroke-width:1.01403"
         d="m 42.836854,120.97352 -5.881373,-6.65203 3.488263,18.25254 -13.790808,-5.55689 11.681625,12.97959 -15.859429,-1.66301 8.193363,4.46173 -10.1403,8.07168 15.697184,-2.10918 -1.906376,13.588 8.436729,-4.54286 0.648979,1.2574 -10.910962,5.84081 2.068621,-14.48035 -18.982641,2.55536 12.53341,-9.93749 -12.492849,-6.85485 19.185447,1.9875 -13.344635,-14.76427 16.914021,6.81428 -4.299488,-21.41632 9.491321,10.95153 z" />
      <path
         id="path857"
         style="stroke-width:1.01403"
         d="m 60.520903,158.57376 -2.636478,-3.975 -3.36658,6.00306 q -0.202806,-0.16225 -1.500764,-2.02806 -1.541326,-2.19031 -2.677039,-4.13725 l -3.772192,7.50382 -2.798723,-4.34004 -1.01403,0.64898 3.934437,6.1653 3.691069,-7.38214 4.340048,6.57091 3.001529,-6.77372 2.960967,3.60995 2.190305,-5.07015 2.02806,8.07168 3.488263,-5.02959 -1.01403,-0.68954 -2.149743,3.12321 -2.109183,-7.90943 z m 5.962496,-41.73748 1.135713,3.52883 0.770663,-1.29796 -2.311988,-6.61148 -5.556884,9.4102 -1.135714,-2.79872 -3.001529,-6.36811 -1.946937,8.84234 -1.865815,-4.13724 -3.285458,5.02959 -3.366579,-6.36811 -2.677039,2.63648 v 1.86581 l 2.271427,-2.43367 3.123212,7.38214 3.731631,-5.59745 2.149743,4.78622 2.230866,-7.86887 3.569386,10.46479 z m -10.586473,10.46479 -4.137242,1.50077 -3.69107,3.52882 v 9.28851 l 1.541326,5.55689 7.179332,2.96097 5.800252,-1.0546 2.677039,-4.66453 -0.892346,-0.56786 -3.001529,-1.21684 -1.257397,4.74566 -5.638007,0.40562 -3.691069,-6.08418 0.730101,-5.07015 2.271428,-4.5023 3.569385,0.20281 1.987499,2.02806 2.311988,-2.43367 z m 0.283928,-1.58189 7.584945,6.04362 -4.38061,4.62398 -2.677039,-2.67704 -2.068621,-0.12168 -1.744132,3.48826 -0.608418,4.29949 2.960968,4.9079 3.73163,-0.24337 1.419642,-5.31351 4.664538,1.82525 2.109182,1.41964 -3.691069,6.36811 -6.854842,1.2574 -8.193363,-3.36658 -1.784692,-6.44923 v -10.05918 l 4.340048,-4.1778 z m -2.271427,27.05432 -8.193362,-3.40714 -1.784693,-6.40867 v -10.09974 l 4.340048,-4.13724 1.703571,-0.7301 -3.853314,3.85331 0.121684,10.22143 1.946937,6.6926 8.071679,3.20433 1.500764,-0.20281 2.960968,-0.60841 0.04056,0.32449 z m 4.583416,-7.46326 -2.02806,0.12169 0.162245,-0.85179 0.892346,-3.40714 1.865815,0.64898 z m 0,-9.57244 -1.622448,1.62245 -2.555356,-2.55536 0.486735,-0.97347 1.825254,0.0811 z" />
      <path
         id="path859"
         style="stroke-width:1.01403"
         d="m 70.919779,161.94033 -2.798722,-4.34004 -1.01403,0.64898 3.934436,6.1653 3.488263,-5.4352 5.354078,4.66454 2.311989,-5.9625 4.542854,5.31352 3.528824,-4.54286 -1.01403,-0.68954 -2.149743,3.12321 -5.475762,-5.31351 -2.068621,4.94846 -4.948467,-3.20433 z m 1.865815,-45.9964 -4.542854,5.07015 -0.892346,-0.81122 5.719129,-6.40867 4.583415,8.84234 1.297959,-1.78469 4.948466,3.28546 3.974998,-11.07321 2.636478,7.54438 -1.135714,0.40561 -1.865815,-4.05612 -3.204335,9.4102 -5.110711,-3.28545 -1.541326,2.1903 z m -1.581886,33.78748 3.812752,1.86582 0.162245,-7.38214 6.814282,-0.56786 2.271427,8.1528 1.906376,0.36506 -3.204335,-22.87652 -1.338519,-0.20281 -1.135714,12.49285 -5.475762,0.93291 2.068622,-12.65509 -2.271428,-1.70357 0.770663,2.27142 z m -0.932908,0.93291 3.974998,-20.56453 -1.33852,-4.25892 5.354078,3.48826 -1.987498,11.72219 3.001528,-0.56786 1.135714,-12.49285 3.285457,-0.24337 3.691069,25.55356 h -4.137242 l -1.865815,-8.31505 -4.867344,0.32449 -0.365051,8.59898 z m 9.81581,-20.4834 -1.176274,0.0406 -0.932908,10.26198 1.095152,-0.20281 z m 3.001529,23.32269 -1.906376,-8.23393 -4.38061,0.24337 v 1.09515 l 3.04209,-0.2028 1.865815,8.3556 h 3.326019 l -0.243368,-1.25739 z m -9.491321,-23.32269 -1.01403,-2.23087 -2.433671,-0.7301 1.500764,3.89387 -3.528824,21.29463 5.800251,2.7176 0.08112,-1.94693 -4.340048,-1.94694 z" />
      <path
         id="path861"
         style="stroke-width:1.01403"
         d="m 92.665023,161.9809 -2.758162,-4.38061 -1.01403,0.64898 3.934437,6.1653 3.934436,-6.85484 3.893876,5.11071 3.04209,-6.97653 3.69107,7.74719 3.48826,-5.07015 -1.01403,-0.68954 -2.14974,3.12321 -4.17781,-7.46326 -3.16377,6.65204 -3.812752,-4.29949 z m 1.379081,-45.9964 -4.502293,4.94846 -0.892347,-0.81122 5.75969,-6.40867 3.204335,7.54438 3.204331,-4.42117 2.87985,6.77372 4.29949,-10.70816 3.28545,7.4227 -1.13571,0.40562 -2.19031,-4.25893 -4.42117,9.36964 -3.20433,-5.75969 -3.082652,3.36658 z m 0,31.79998 4.583415,1.29795 6.530351,-0.68954 1.37908,-6.57091 V 129.7753 l -3.89387,-0.56785 1.21683,11.27601 -1.41964,4.58342 -4.096679,2.75816 -1.703571,-3.60995 1.906377,-9.08571 0.365051,-6.36811 -2.960968,-2.79872 -0.121684,2.23087 z m -1.297959,0.89234 2.149744,-25.43187 5.232391,5.02959 -0.365047,7.01709 -1.825254,8.76122 0.892346,1.94693 2.595915,-1.70357 1.17628,-3.93443 -1.33852,-12.57397 6.48979,0.9329 v 13.22295 l -1.58189,7.58495 -7.625503,0.81122 z m 8.558415,-16.67065 -1.05459,-0.20281 0.56785,12.00612 1.13572,-3.52883 z m -9.045149,17.0357 1.946937,-19.83442 -1.581886,-1.62245 -0.162245,3.52882 -1.865815,20.0778 5.191833,1.50076 7.098215,-0.77066 0.16224,-1.78469 -5.475762,0.64898 z" />
      <path
         id="path863"
         style="stroke-width:1.01403"
         d="m 111.15332,157.60029 -1.01403,0.64898 3.93444,6.1653 4.74566,-6.32755 5.23239,4.90791 3.32602,-7.50383 3.60995,7.38214 4.01556,-4.94846 -1.01403,-0.68954 -2.67704,3.00152 -3.73163,-6.97652 -3.60995,6.1653 -5.51632,-3.56939 -4.46173,5.7597 z m -0.36505,-36.66733 -0.89235,-0.81122 5.75969,-6.40867 5.9625,9.04515 5.02959,-3.52883 4.9079,-6.8954 3.32602,7.4227 -1.13571,0.40561 -2.19031,-4.25893 -4.1778,5.35408 -6.32755,3.52883 -5.75969,-8.55842 z m 11.64106,11.51938 -0.7301,16.87346 h 4.13725 v -16.63009 l 5.80025,0.56786 0.16224,-5.39464 -16.63009,0.85178 0.16224,5.02959 z m -1.25739,1.46021 -7.01709,1.29795 -0.24337,-7.6255 19.10433,-1.01403 -0.20281,8.03112 -5.75969,-0.56786 v 16.50841 h -6.61147 z m 6.77372,3.52882 2.96097,-2.23087 -2.96097,-0.16224 z m -7.26046,-2.59592 -7.26045,0.93291 0.2028,-4.82678 -1.86581,0.16224 0.20281,6.32755 7.05764,-1.29796 -0.77066,16.75178 h 5.39464 v -1.66301 l -3.89387,0.16224 z" />
      <path
         id="path865"
         style="stroke-width:1.01403"
         d="m 158.84315,158.08702 -0.97347,-0.68954 -3.00152,3.28546 -6.85485,-7.26046 -3.16377,5.51633 -3.69107,-4.5023 -3.77219,7.50382 -2.79872,-4.34004 -1.01403,0.64898 3.93443,6.1653 3.93444,-7.4227 3.65051,4.01556 2.7176,-4.74566 6.81428,7.09821 z m -12.89846,-38.37089 -2.43367,6.1653 -4.13724,-9.00459 -4.66454,4.13724 -0.89235,-0.81122 5.71913,-6.40867 3.89388,8.92347 2.51479,-6.24643 4.42117,6.36811 5.15127,-10.18086 3.32602,7.6255 -1.13571,0.40562 -2.23087,-4.46174 -4.9079,8.80178 z m -6.36811,13.34463 2.35255,0.48674 3.2449,0.24336 -0.28393,6.48979 -1.21684,7.30102 -5.75969,0.36505 -0.12168,1.90638 0.48674,2.02806 7.66606,-2.63648 6.48979,-0.5273 -1.29795,-3.56938 -5.02959,0.93291 3.00153,-12.6551 6.69259,0.7301 0.32449,-6.85484 -15.61606,1.4602 z m -1.54132,1.05459 1.25739,-6.32754 17.68469,-1.33852 -0.24337,8.8829 -7.13877,-0.77066 -0.85179,3.93443 -1.50076,6.20587 4.34005,-1.01403 2.59592,5.80025 -8.15281,1.01403 -8.80178,2.75816 -0.2028,-3.28546 -0.89235,-3.08265 h 6.53035 l 1.41965,-6.6926 v -5.39464 l -2.27143,-0.44617 z m 12.49285,0.89235 -0.97347,1.70357 4.74566,0.56786 0.24337,-1.90638 h -0.68954 z m -15.89999,14.72371 0.7301,2.59592 0.2028,2.79872 8.35561,-2.59591 7.62551,-0.93291 -0.64898,-1.4602 -4.78622,0.77066 -9.2074,2.67704 -0.36505,-3.85332 z m 7.82831,-3.24489 1.33852,-6.44923 -0.0811,-4.90791 -1.9875,-0.44617 -4.01556,-0.0406 0.77066,-4.09668 -0.89235,0.0406 -1.09515,5.59744 3.32602,0.16225 2.59592,0.56785 v 5.7597 l -0.81123,3.81275 z" />
      <path
         id="path867"
         style="stroke-width:1.01403"
         d="m 157.74546,119.51332 10.1403,-6.08418 -6.40866,18.8204 18.09029,-5.4352 -11.3977,12.45228 26.40534,9.04515 -26.68927,-0.52729 19.99668,12.57397 -20.76734,-4.34005 1.29796,10.34311 -11.23545,-7.38214 0.77066,-1.17628 8.6801,5.67857 -1.17628,-9.24795 14.96709,3.12321 -17.60357,-11.07321 22.71428,0.44618 -19.87499,-6.81429 9.36964,-10.26198 -16.06224,4.82678 5.75969,-17.48187 -6.97653,4.25892 z" />
    </g>
  </g>
</svg>
